<svg width="125" height="125" viewBox="0 0 125 125" fill="none" xmlns="http://www.w3.org/2000/svg">
<path fill-rule="evenodd" clip-rule="evenodd" d="M56.5399 45.9549C55.5314 48.0353 54.8383 50.3045 54.5229 52.8891C54.4596 52.8891 53.9553 52.9524 53.9553 52.9524L53.9504 52.9528C51.7456 53.142 49.5414 53.3312 47.3994 54.1498L47.5254 54.9694C51.0558 59.319 56.4133 61.9664 56.4133 61.9664L55.4048 60.0121C55.1527 59.8233 54.3963 59.6339 54.3963 59.6339C52.001 58.8775 50.2989 55.7258 50.0467 55.2216C52.001 55.2216 53.766 55.7886 55.4048 56.3562C55.6811 56.433 55.9537 56.5135 56.2235 56.5932C57.0615 56.8407 57.8721 57.0801 58.6825 57.1759C60.4469 57.4697 62.2664 57.2152 63.9868 56.9746C64.1102 56.9573 64.2332 56.9401 64.3555 56.9232C65.8055 56.7344 67.1928 56.7344 68.58 56.8599C68.6058 56.8859 68.6553 56.9414 68.7252 57.0198C69.1655 57.5138 70.417 58.9178 71.6684 59.5706C73.4333 60.4531 78.5392 62.0286 78.7914 62.0919C78.9169 62.1552 80.8717 64.1718 82.1319 66.4415C76.3318 69.0894 69.8402 70.4751 63.347 70.4751C56.8543 70.4751 50.3617 69.0889 44.5626 66.4415C42.6716 61.5249 41.6631 56.3557 41.6631 51.0609C41.6631 45.8289 42.6716 40.6596 44.5626 35.7436C50.3617 33.0957 56.8543 31.7095 63.347 31.7095C69.9029 31.7095 76.3956 33.0962 82.1319 35.7436C84.0229 40.6602 85.0309 45.8289 85.0309 51.0609C85.0356 55.8485 84.2256 60.6021 82.6356 65.118C80.8079 61.9659 80.052 61.0206 80.052 61.0206C79.9893 61.0206 77.4674 59.6967 76.8371 59.1291C76.3629 58.7144 76.1126 57.9111 75.8221 56.9788C75.8034 56.9186 75.7844 56.8578 75.7653 56.7966C75.3871 55.3471 74.8838 53.5817 73.4966 52.1322L75.0722 51.5013C74.6312 48.539 71.1013 46.648 71.0386 46.648L70.9748 46.7113C72.362 48.413 72.6141 49.7997 72.6141 50.6827C72.6141 51.1237 72.5514 51.4386 72.4886 51.5646C72.1099 51.3758 69.5258 50.5561 63.5374 50.8082C62.7177 50.8082 61.457 50.7455 60.7006 50.0518C60.2591 49.6736 60.0703 49.0433 60.0703 48.3497C60.0703 46.2699 60.9528 43.4959 61.0788 43.1182L62.5921 43.307C64.4831 42.2985 65.1762 41.3528 65.239 41.2272C63.6634 41.4166 61.5836 41.7942 61.5836 41.7942C61.7097 41.4788 62.0879 40.2815 62.0879 38.9575C62.0879 37.5075 61.6469 35.9319 59.8187 34.9862L59.6921 35.0494C59.7554 35.1122 60.7634 36.2468 60.7634 37.7596C60.7634 38.2011 60.7006 38.7054 60.5113 39.1463C59.8809 38.9575 59.5027 38.8947 58.8091 38.8947C58.4314 37.6335 57.3601 36.625 55.9101 36.1207L55.8468 36.1835C55.8468 36.1835 57.4229 37.3186 57.4857 38.8947C56.7717 38.954 56.3388 39.0696 55.4971 39.2944C55.4471 39.3078 55.3956 39.3215 55.3426 39.3357C54.9011 38.7054 54.0186 38.2011 52.8207 38.075V38.2016C52.8207 38.2016 54.2075 38.6426 54.4596 39.7144C53.6409 40.0926 52.6319 40.6596 52.0643 41.1644L52.1276 41.2277C55.6575 39.9038 58.9352 39.5889 59.7549 40.5974C59.9437 40.7862 60.007 40.9756 60.007 41.2277C60.007 41.4793 59.8804 41.8581 59.6288 42.2363C57.9272 42.6145 55.2798 43.3076 53.1367 44.1272L53.4516 45.0097C53.4516 45.0097 55.5947 45.4512 56.4144 45.6406C56.4144 45.6406 56.7293 45.7033 56.5399 45.9549ZM17.3604 88.7759C17.3604 88.7759 18.5007 89.1904 19.779 89.1904C21.161 89.1904 21.99 88.984 22.4736 88.4994C22.8538 88.1197 23.0266 87.4629 22.9923 86.4616V79.9658H25.0307V86.7729C24.9964 89.7782 23.5454 91.057 20.1592 91.057C18.5007 91.057 17.3604 90.7805 17.3604 90.7805V88.7759ZM30.9729 81.9357C34.2205 81.9357 36.1209 83.6632 36.1209 86.5654C36.1209 88.6384 34.7736 91.057 30.9729 91.057C27.138 91.057 25.7907 88.6384 25.7907 86.5654C25.7902 83.6632 27.7248 81.9357 30.9729 81.9357ZM34.1168 86.4621C34.1168 84.7003 32.977 83.698 30.9729 83.698C28.9688 83.698 27.7948 84.7003 27.7948 86.4621C27.7948 88.9144 29.7984 89.261 30.9729 89.261C32.1474 89.261 34.1168 88.9139 34.1168 86.4621ZM44.2394 82.1432V85.5978H39.0225V82.1432H37.0189V90.8495H39.0225V87.3596H44.2394V90.8495H46.2783V82.1432H44.2394ZM74.5741 89.0529V87.3596H79.2033V85.5978H74.5741V83.9045H80.5511V82.1432H72.5353V90.8495H80.5511V89.0529H74.5741ZM83.6265 89.0529V87.3596H88.2562V85.5978H83.6265V83.9045H89.6372V82.1432H81.6219V90.8495H89.6372V89.0529H83.6265ZM102.628 89.0529V87.3596H107.258V85.5978H102.628V83.9045H108.64V82.1432H100.624V90.8495H108.64V89.0529H102.628ZM65.6603 81.7634C68.2859 81.7634 69.8064 83.0754 69.8064 85.3555C69.8064 88.5694 67.2156 89.0529 65.6603 89.0529H62.7924V81.7634H65.6603ZM65.6603 79.9658H60.7888V90.8495H65.6603C70.221 90.8495 71.81 87.9474 71.81 85.4946C71.8095 82.0389 69.4952 79.9658 65.6603 79.9658ZM97.445 87.5329C99.0003 87.1531 99.5523 85.9776 99.5523 84.941C99.5523 83.1792 98.4126 82.1432 96.4437 82.1432H90.7433V90.849H92.7463V87.6704H95.1307L97.5493 90.849H100.003L97.445 87.5329ZM92.7468 85.8743V83.9045H96.4443C97.1343 83.9045 97.5498 84.2853 97.5498 84.872C97.5498 85.7363 96.8588 85.8743 96.4443 85.8743H92.7468ZM54.7428 90.8495L49.4906 84.9068V90.8495H47.4876V82.1432H49.4906L54.7428 88.0164V82.1432H56.7464V90.8495H54.7428Z" fill="#2C3333"/>
</svg>
